<?xml version="1.0" encoding="UTF-8"?>
<svg width="14px" height="14px" viewBox="0 0 14 14" version="1.1" xmlns="http://www.w3.org/2000/svg" xmlns:xlink="http://www.w3.org/1999/xlink">
    <!-- Generator: Sketch 47 (45396) - http://www.bohemiancoding.com/sketch -->
    <title>Search</title>
    <desc>Created with Sketch.</desc>
    <defs></defs>
    <g id="iOS-11-Screens" stroke="none" stroke-width="1" fill="none" fill-rule="evenodd">
        <g id="Files" transform="translate(-26.000000, -135.000000)" fill="#8E8E93">
            <g id="Title" transform="translate(16.000000, 67.000000)">
                <g id="Search-Bar" transform="translate(0.000000, 57.000000)">
                    <path d="M23.7430947,23.5740557 L19.9100947,19.7395557 C20.5971654,18.8024594 20.9652265,17.6695322 20.9600947,16.5075557 C20.946985,13.4744115 18.4937166,11.0175744 15.4605947,11.0000557 C14.0090748,10.9934884 12.615216,11.5677123 11.5895306,12.5948065 C10.5638452,13.6219006 9.99153507,15.0165463 10.0000947,16.4680557 C10.0132044,19.5014761 12.4666965,21.958537 15.5000947,21.9760557 C16.6668048,21.9811124 17.8038711,21.6087552 18.7415947,20.9145557 L18.7455947,20.9115557 L22.5750947,24.7430557 C22.7821435,24.9602692 23.0906604,25.0481921 23.3811096,24.9727584 C23.6715587,24.8973248 23.898302,24.6703873 23.9734871,24.3798737 C24.0486722,24.0893602 23.9604853,23.7809186 23.7430947,23.5740557 L23.7430947,23.5740557 Z M15.4960947,20.8780557 C13.0695087,20.8640967 11.1067469,18.8986584 11.0960947,16.4720557 C11.0895452,15.3109985 11.547431,14.1955061 12.3678249,13.3738915 C13.1882187,12.5522768 14.303029,12.0927328 15.4640947,12.0975557 C17.8906806,12.1115147 19.8534424,14.076953 19.8640947,16.5035557 C19.8706441,17.6646129 19.4127583,18.7801053 18.5923644,19.60172 C17.7719706,20.4233346 16.6571603,20.8828786 15.4960947,20.8780557 Z" id="Search"></path>
                </g>
            </g>
        </g>
    </g>
</svg>